<svg xmlns="http://www.w3.org/2000/svg" width="1000" height="480" viewBox="0 0 1000 480"><rect width="1000" height="480" fill="#f4f6fc"/><g font-family="Arial,sans-serif" fill="#26344e"><text x="30" y="44" font-size="25" font-weight="700">Orfin · silhouette study</text><text x="30" y="72" font-size="14" fill="#626e86">One shape, two eyes. Actual sizes: 16 / 24 / 40 px. B is the selected character.</text><rect x="30" y="96" width="310" height="350" rx="18" fill="white" stroke="#dce2f3"/><text x="54" y="132" font-size="19" font-weight="700">A · Notch</text><svg x="54" y="167" width="16" height="16" viewBox="0 0 40 40"><path d="M11 5H25C31 5 35 9 35 15V25C35 31 31 35 25 35H15C9 35 5 31 5 25V23L10 20L5 17V15C5 9 7 5 11 5Z" fill="#4361ee"/><ellipse cx="15" cy="20" rx="1.85" ry="2.6" fill="white"/><ellipse cx="25" cy="20" rx="1.85" ry="2.6" fill="white"/></svg><text x="54" y="225" font-size="12" fill="#626e86">16 px</text><svg x="126" y="167" width="24" height="24" viewBox="0 0 40 40"><path d="M11 5H25C31 5 35 9 35 15V25C35 31 31 35 25 35H15C9 35 5 31 5 25V23L10 20L5 17V15C5 9 7 5 11 5Z" fill="#4361ee"/><ellipse cx="15" cy="20" rx="1.85" ry="2.6" fill="white"/><ellipse cx="25" cy="20" rx="1.85" ry="2.6" fill="white"/></svg><text x="126" y="225" font-size="12" fill="#626e86">24 px</text><svg x="210" y="167" width="40" height="40" viewBox="0 0 40 40"><path d="M11 5H25C31 5 35 9 35 15V25C35 31 31 35 25 35H15C9 35 5 31 5 25V23L10 20L5 17V15C5 9 7 5 11 5Z" fill="#4361ee"/><ellipse cx="15" cy="20" rx="1.85" ry="2.6" fill="white"/><ellipse cx="25" cy="20" rx="1.85" ry="2.6" fill="white"/></svg><text x="210" y="225" font-size="12" fill="#626e86">40 px</text><svg x="130" y="250" width="96" height="96" viewBox="0 0 40 40"><path d="M11 5H25C31 5 35 9 35 15V25C35 31 31 35 25 35H15C9 35 5 31 5 25V23L10 20L5 17V15C5 9 7 5 11 5Z" fill="#4361ee"/><ellipse cx="15" cy="20" rx="1.85" ry="2.6" fill="white"/><ellipse cx="25" cy="20" rx="1.85" ry="2.6" fill="white"/></svg><rect x="52" y="380" width="266" height="44" rx="8" fill="#263c35"/><svg x="64" y="390" width="24" height="24" viewBox="0 0 40 40"><path d="M11 5H25C31 5 35 9 35 15V25C35 31 31 35 25 35H15C9 35 5 31 5 25V23L10 20L5 17V15C5 9 7 5 11 5Z" fill="#e5ecd6"/><ellipse cx="15" cy="20" rx="1.85" ry="2.6" fill="#263c35"/><ellipse cx="25" cy="20" rx="1.85" ry="2.6" fill="#263c35"/></svg><text x="99" y="408" fill="#e5ecd6" font-size="15">Orfin · here to help</text><rect x="354" y="96" width="310" height="350" rx="18" fill="white" stroke="#dce2f3"/><text x="378" y="132" font-size="19" font-weight="700">B · Sidekick</text><svg x="378" y="167" width="16" height="16" viewBox="0 0 40 40"><path d="M12 7C12 4 17 3 21 5L27 8C30 9 32 11 32 15V17C37 17 39 21 36 25L32 30C30 34 26 36 22 34L18 32H12C6 32 3 29 4 24L6 16C7 12 8 9 12 7Z" fill="#4361ee"/><ellipse cx="15" cy="20" rx="1.85" ry="2.6" fill="white"/><ellipse cx="24" cy="20" rx="1.85" ry="2.6" fill="white"/></svg><text x="378" y="225" font-size="12" fill="#626e86">16 px</text><svg x="450" y="167" width="24" height="24" viewBox="0 0 40 40"><path d="M12 7C12 4 17 3 21 5L27 8C30 9 32 11 32 15V17C37 17 39 21 36 25L32 30C30 34 26 36 22 34L18 32H12C6 32 3 29 4 24L6 16C7 12 8 9 12 7Z" fill="#4361ee"/><ellipse cx="15" cy="20" rx="1.85" ry="2.6" fill="white"/><ellipse cx="24" cy="20" rx="1.85" ry="2.6" fill="white"/></svg><text x="450" y="225" font-size="12" fill="#626e86">24 px</text><svg x="534" y="167" width="40" height="40" viewBox="0 0 40 40"><path d="M12 7C12 4 17 3 21 5L27 8C30 9 32 11 32 15V17C37 17 39 21 36 25L32 30C30 34 26 36 22 34L18 32H12C6 32 3 29 4 24L6 16C7 12 8 9 12 7Z" fill="#4361ee"/><ellipse cx="15" cy="20" rx="1.85" ry="2.6" fill="white"/><ellipse cx="24" cy="20" rx="1.85" ry="2.6" fill="white"/></svg><text x="534" y="225" font-size="12" fill="#626e86">40 px</text><svg x="454" y="250" width="96" height="96" viewBox="0 0 40 40"><path d="M12 7C12 4 17 3 21 5L27 8C30 9 32 11 32 15V17C37 17 39 21 36 25L32 30C30 34 26 36 22 34L18 32H12C6 32 3 29 4 24L6 16C7 12 8 9 12 7Z" fill="#4361ee"/><ellipse cx="15" cy="20" rx="1.85" ry="2.6" fill="white"/><ellipse cx="24" cy="20" rx="1.85" ry="2.6" fill="white"/></svg><rect x="376" y="380" width="266" height="44" rx="8" fill="#263c35"/><svg x="388" y="390" width="24" height="24" viewBox="0 0 40 40"><path d="M12 7C12 4 17 3 21 5L27 8C30 9 32 11 32 15V17C37 17 39 21 36 25L32 30C30 34 26 36 22 34L18 32H12C6 32 3 29 4 24L6 16C7 12 8 9 12 7Z" fill="#e5ecd6"/><ellipse cx="15" cy="20" rx="1.85" ry="2.6" fill="#263c35"/><ellipse cx="24" cy="20" rx="1.85" ry="2.6" fill="#263c35"/></svg><text x="423" y="408" fill="#e5ecd6" font-size="15">Orfin · here to help</text><rect x="678" y="96" width="310" height="350" rx="18" fill="white" stroke="#dce2f3"/><text x="702" y="132" font-size="19" font-weight="700">C · Clover</text><svg x="702" y="167" width="16" height="16" viewBox="0 0 40 40"><path d="M20 6C25 3 31 6 31 12C37 14 38 20 34 24C35 30 31 35 25 34C22 38 15 37 12 33C6 33 3 28 5 23C1 18 4 11 10 11C11 5 16 3 20 6Z" fill="#4361ee"/><ellipse cx="15" cy="20" rx="1.85" ry="2.6" fill="white"/><ellipse cx="25" cy="20" rx="1.85" ry="2.6" fill="white"/></svg><text x="702" y="225" font-size="12" fill="#626e86">16 px</text><svg x="774" y="167" width="24" height="24" viewBox="0 0 40 40"><path d="M20 6C25 3 31 6 31 12C37 14 38 20 34 24C35 30 31 35 25 34C22 38 15 37 12 33C6 33 3 28 5 23C1 18 4 11 10 11C11 5 16 3 20 6Z" fill="#4361ee"/><ellipse cx="15" cy="20" rx="1.85" ry="2.6" fill="white"/><ellipse cx="25" cy="20" rx="1.85" ry="2.6" fill="white"/></svg><text x="774" y="225" font-size="12" fill="#626e86">24 px</text><svg x="858" y="167" width="40" height="40" viewBox="0 0 40 40"><path d="M20 6C25 3 31 6 31 12C37 14 38 20 34 24C35 30 31 35 25 34C22 38 15 37 12 33C6 33 3 28 5 23C1 18 4 11 10 11C11 5 16 3 20 6Z" fill="#4361ee"/><ellipse cx="15" cy="20" rx="1.85" ry="2.6" fill="white"/><ellipse cx="25" cy="20" rx="1.85" ry="2.6" fill="white"/></svg><text x="858" y="225" font-size="12" fill="#626e86">40 px</text><svg x="778" y="250" width="96" height="96" viewBox="0 0 40 40"><path d="M20 6C25 3 31 6 31 12C37 14 38 20 34 24C35 30 31 35 25 34C22 38 15 37 12 33C6 33 3 28 5 23C1 18 4 11 10 11C11 5 16 3 20 6Z" fill="#4361ee"/><ellipse cx="15" cy="20" rx="1.85" ry="2.6" fill="white"/><ellipse cx="25" cy="20" rx="1.85" ry="2.6" fill="white"/></svg><rect x="700" y="380" width="266" height="44" rx="8" fill="#263c35"/><svg x="712" y="390" width="24" height="24" viewBox="0 0 40 40"><path d="M20 6C25 3 31 6 31 12C37 14 38 20 34 24C35 30 31 35 25 34C22 38 15 37 12 33C6 33 3 28 5 23C1 18 4 11 10 11C11 5 16 3 20 6Z" fill="#e5ecd6"/><ellipse cx="15" cy="20" rx="1.85" ry="2.6" fill="#263c35"/><ellipse cx="25" cy="20" rx="1.85" ry="2.6" fill="#263c35"/></svg><text x="747" y="408" fill="#e5ecd6" font-size="15">Orfin · here to help</text></g></svg>
